<svg width="9" height="8" viewBox="0 0 9 8" fill="none" xmlns="http://www.w3.org/2000/svg">
<path d="M4.19922 6.48438C4.82422 5.92448 5.28646 5.5013 5.58594 5.21484C5.88542 4.92839 6.21094 4.58984 6.5625 4.19922C6.91406 3.80859 7.15495 3.46354 7.28516 3.16406C7.42839 2.86458 7.5 2.57161 7.5 2.28516C7.5 1.86849 7.35677 1.52344 7.07031 1.25C6.79688 0.976562 6.45182 0.839844 6.03516 0.839844C5.70964 0.839844 5.40365 0.93099 5.11719 1.11328C4.84375 1.29557 4.65495 1.52995 4.55078 1.81641H3.76953C3.66536 1.52995 3.47005 1.29557 3.18359 1.11328C2.91016 0.93099 2.61068 0.839844 2.28516 0.839844C1.86849 0.839844 1.51693 0.976562 1.23047 1.25C0.957031 1.52344 0.820312 1.86849 0.820312 2.28516C0.820312 2.57161 0.885417 2.86458 1.01562 3.16406C1.15885 3.46354 1.40625 3.80859 1.75781 4.19922C2.10938 4.58984 2.4349 4.92839 2.73438 5.21484C3.03385 5.5013 3.49609 5.92448 4.12109 6.48438L4.16016 6.52344L4.19922 6.48438ZM6.03516 0C6.6862 0 7.22656 0.221354 7.65625 0.664062C8.09896 1.10677 8.32031 1.64714 8.32031 2.28516C8.32031 2.66276 8.2487 3.03385 8.10547 3.39844C7.96224 3.75 7.69531 4.14714 7.30469 4.58984C6.92708 5.03255 6.58203 5.40365 6.26953 5.70312C5.95703 6.0026 5.45573 6.46484 4.76562 7.08984L4.16016 7.63672L3.55469 7.10938C2.65625 6.30208 2.00521 5.69661 1.60156 5.29297C1.21094 4.88932 0.846354 4.41406 0.507812 3.86719C0.169271 3.32031 0 2.79297 0 2.28516C0 1.64714 0.214844 1.10677 0.644531 0.664062C1.08724 0.221354 1.63411 0 2.28516 0C3.04036 0 3.66536 0.292969 4.16016 0.878906C4.65495 0.292969 5.27995 0 6.03516 0Z" fill="#1F2041" fill-opacity="0.25"/>
</svg>
