<svg width="9" height="8" viewBox="0 0 9 8" fill="none" xmlns="http://www.w3.org/2000/svg">
<path d="M4.16073 7.63672L3.55526 7.08984C2.86516 6.46484 2.36386 6.0026 2.05136 5.70312C1.73886 5.40365 1.3873 5.03255 0.996671 4.58984C0.619067 4.14714 0.35865 3.75 0.215421 3.39844C0.0721916 3.03385 0.000576973 2.66276 0.000576973 2.28516C0.000576973 1.64714 0.215421 1.10677 0.645108 0.664062C1.08782 0.221354 1.63469 0 2.28573 0C3.04094 0 3.66594 0.292969 4.16073 0.878906C4.65552 0.292969 5.28052 0 6.03573 0C6.68677 0 7.22714 0.221354 7.65683 0.664062C8.09954 1.10677 8.32089 1.64714 8.32089 2.28516C8.32089 2.79297 8.15162 3.32031 7.81308 3.86719C7.47454 4.41406 7.10344 4.88932 6.6998 5.29297C6.30917 5.69661 5.66464 6.30208 4.7662 7.10938L4.16073 7.63672Z" fill="url(#paint0_linear_18447_118)"/>
<defs>
<linearGradient id="paint0_linear_18447_118" x1="4.16073" y1="-6.25" x2="4.16073" y2="13.75" gradientUnits="userSpaceOnUse">
<stop stop-color="#BC9CFF"/>
<stop offset="1" stop-color="#8BA4F9"/>
</linearGradient>
</defs>
</svg>
