<svg width="40" height="40" viewBox="0 0 40 40" fill="none" xmlns="http://www.w3.org/2000/svg">
<path d="M26.1562 29.0625C24.3438 30.3125 22.2812 30.9375 19.9688 30.9375C17.6562 30.9375 15.5625 30.3125 13.6875 29.0625C11.875 27.75 10.5625 26.0625 9.75 24H30.1875C29.375 26.0625 28.0312 27.75 26.1562 29.0625ZM15 17.1562C14.4375 17.7188 13.75 18 12.9375 18C12.125 18 11.4062 17.7188 10.7812 17.1562C10.2188 16.5312 9.9375 15.8125 9.9375 15C9.9375 14.1875 10.2188 13.5 10.7812 12.9375C11.4062 12.3125 12.125 12 12.9375 12C13.75 12 14.4375 12.3125 15 12.9375C15.625 13.5 15.9375 14.1875 15.9375 15C15.9375 15.8125 15.625 16.5312 15 17.1562ZM29.0625 17.1562C28.5 17.7188 27.8125 18 27 18C26.1875 18 25.4688 17.7188 24.8438 17.1562C24.2812 16.5312 24 15.8125 24 15C24 14.1875 24.2812 13.5 24.8438 12.9375C25.4688 12.3125 26.1875 12 27 12C27.8125 12 28.5 12.3125 29.0625 12.9375C29.6875 13.5 30 14.1875 30 15C30 15.8125 29.6875 16.5312 29.0625 17.1562ZM8.625 31.3125C11.8125 34.4375 15.5938 36 19.9688 36C24.3438 36 28.0938 34.4375 31.2188 31.3125C34.4062 28.125 36 24.3438 36 19.9688C36 15.5938 34.4062 11.8437 31.2188 8.71875C28.0938 5.53125 24.3438 3.9375 19.9688 3.9375C15.5938 3.9375 11.8125 5.53125 8.625 8.71875C5.5 11.8437 3.9375 15.5938 3.9375 19.9688C3.9375 24.3438 5.5 28.125 8.625 31.3125ZM5.8125 5.90625C9.75 1.96875 14.4688 0 19.9688 0C25.4688 0 30.1562 1.96875 34.0312 5.90625C37.9688 9.78125 39.9375 14.4688 39.9375 19.9688C39.9375 25.4688 37.9688 30.1875 34.0312 34.125C30.1562 38 25.4688 39.9375 19.9688 39.9375C14.4688 39.9375 9.75 38 5.8125 34.125C1.9375 30.1875 0 25.4688 0 19.9688C0 14.4688 1.9375 9.78125 5.8125 5.90625Z" fill="url(#paint0_linear_18384_58)"/>
<defs>
<linearGradient id="paint0_linear_18384_58" x1="19.9688" y1="-4.03125" x2="19.9688" y2="43.9688" gradientUnits="userSpaceOnUse">
<stop stop-color="#BC9CFF"/>
<stop offset="1" stop-color="#8BA4F9"/>
</linearGradient>
</defs>
</svg>
