<svg width="36" height="38" viewBox="0 0 36 38" fill="none" xmlns="http://www.w3.org/2000/svg">
<path d="M31.9688 25.9688V21.9375H28.0312V25.9688H31.9688ZM31.9688 33.9375V30H28.0312V33.9375H31.9688ZM19.9688 9.9375V6H16.0312V9.9375H19.9688ZM19.9688 18V13.9688H16.0312V18H19.9688ZM19.9688 25.9688V21.9375H16.0312V25.9688H19.9688ZM19.9688 33.9375V30H16.0312V33.9375H19.9688ZM7.96875 18V13.9688H4.03125V18H7.96875ZM7.96875 25.9688V21.9375H4.03125V25.9688H7.96875ZM7.96875 33.9375V30H4.03125V33.9375H7.96875ZM24 18H36V37.9688H0V9.9375H12V6L18 0L24 6V18Z" fill="url(#paint0_linear_18384_61)"/>
<defs>
<linearGradient id="paint0_linear_18384_61" x1="18" y1="-4.03125" x2="18" y2="43.9688" gradientUnits="userSpaceOnUse">
<stop stop-color="#BC9CFF"/>
<stop offset="1" stop-color="#8BA4F9"/>
</linearGradient>
</defs>
</svg>
