<svg width="33" height="43" viewBox="0 0 33 43" fill="none" xmlns="http://www.w3.org/2000/svg">
<path d="M15.4688 36.6562C18.1562 36.6562 20.4062 35.75 22.2188 33.9375C24.0938 32.0625 25.0312 29.7812 25.0312 27.0938C25.0312 24.3438 24.6562 21.6562 23.9062 19.0312C21.9688 21.5938 18.875 23.3125 14.625 24.1875C10.875 25 9 27.0625 9 30.375C9 32.125 9.625 33.625 10.875 34.875C12.125 36.0625 13.6562 36.6562 15.4688 36.6562ZM19.0312 0C23.0312 3.25 26.1875 7.21875 28.5 11.9062C30.875 16.5312 32.0625 21.4688 32.0625 26.7188C32.0625 31.0938 30.5 34.8438 27.375 37.9688C24.25 41.0938 20.4688 42.6562 16.0312 42.6562C11.5938 42.6562 7.8125 41.0938 4.6875 37.9688C1.5625 34.8438 0 31.0938 0 26.7188C0 19.9688 2.15625 14.0313 6.46875 8.90625V9.65625C6.46875 11.7188 7.15625 13.4688 8.53125 14.9062C9.90625 16.3438 11.625 17.0625 13.6875 17.0625C15.6875 17.0625 17.3125 16.375 18.5625 15C19.875 13.5625 20.5312 11.7813 20.5312 9.65625C20.5312 8.40625 20.4062 6.96875 20.1562 5.34375C19.9062 3.71875 19.6562 2.4375 19.4062 1.5L19.0312 0Z" fill="url(#paint0_linear_18384_65)"/>
<defs>
<linearGradient id="paint0_linear_18384_65" x1="16.0312" y1="-1.3125" x2="16.0313" y2="46.6875" gradientUnits="userSpaceOnUse">
<stop stop-color="#BC9CFF"/>
<stop offset="1" stop-color="#8BA4F9"/>
</linearGradient>
</defs>
</svg>
